<svg id="Layer_1" data-name="Layer 1" xmlns="http://www.w3.org/2000/svg" xmlns:xlink="http://www.w3.org/1999/xlink" viewBox="0 0 787.74 453.74"><defs><style>.cls-1,.cls-2{fill:none;}.cls-2{clip-path:url(#clip-path);}.cls-3{clip-path:url(#clip-path-3);}.cls-4{fill:#1356c5;}.cls-5{clip-path:url(#clip-path-4);}.cls-6{fill:#ff6e00;}</style><clipPath id="clip-path"><rect class="cls-1" x="114.22" y="281.13" width="770" height="436"/></clipPath><clipPath id="clip-path-3" transform="translate(-105 -273)"><path class="cls-2" d="M250.27,283.4c6.84-.75,12-.26,22,0a183.57,183.57,0,0,1,20.91,3,128.29,128.29,0,0,1,18.67,6.22h0l-14.42,66.24a64.53,64.53,0,0,0-7.17-1.19c-2.25-.23-5.92-.48-11-.75a88.34,88.34,0,0,0-22.35,2.7,44.5,44.5,0,0,0-17.08,9.95c-4.37,4.19-6.91,8-9.76,14.66s-4.31,20.27-4.31,28.09h0V425.9h46.54v72.51H225.72v213H153v-213L115,498.28V425.9H153V412.31c0-17.6,3.56-45.61,10.22-61.07s12.23-25,23.87-36.43,21.59-18.6,37.05-25.26c7.8-3.36,19.23-5.39,26.18-6.15ZM416,425.9V711.41H342.66v-213H296.32V425.9ZM551.38,711.41V312.34H478.07V711.41Zm185.54,5.33a140.49,140.49,0,0,0,56.91-11.6,145.87,145.87,0,0,0,46.25-31.72,149,149,0,0,0,31.19-47.72,153.75,153.75,0,0,0,11.47-59.58q0-34.12-11.47-62a145.26,145.26,0,0,0-31.19-47.72,137.55,137.55,0,0,0-46.25-30.65A149.43,149.43,0,0,0,736.92,415a141.26,141.26,0,0,0-56.65,11.46A145.87,145.87,0,0,0,633.88,458a147.57,147.57,0,0,0-31.32,47.85q-11.46,27.74-11.46,60.25a153.74,153.74,0,0,0,11.46,59.58,146.07,146.07,0,0,0,77.71,79.44,139.85,139.85,0,0,0,56.65,11.6Zm0-73a67.16,67.16,0,0,1-28.13-6,71.63,71.63,0,0,1-22.92-16.4,76.82,76.82,0,0,1-15.33-24.52,82.54,82.54,0,0,1-5.6-30.66,86.52,86.52,0,0,1,5.6-31.85,74.94,74.94,0,0,1,15.33-24.53A65.93,65.93,0,0,1,708.79,494,75.17,75.17,0,0,1,765,494a67.42,67.42,0,0,1,23.06,15.73,75.7,75.7,0,0,1,15.59,24.53,90.87,90.87,0,0,1,0,63.57,73.83,73.83,0,0,1-15.59,24.53A70,70,0,0,1,765,638.1a71.3,71.3,0,0,1-28.12,5.6Z"/></clipPath><clipPath id="clip-path-4" transform="translate(-105 -273)"><path class="cls-2" d="M377.18,409.21a47.8,47.8,0,0,0,19.34-3.95,51.66,51.66,0,0,0,15.82-10.63A49.52,49.52,0,0,0,423,379a49.37,49.37,0,0,0,0-38.56,49.14,49.14,0,0,0-10.68-15.81A51.84,51.84,0,0,0,396.52,314a49.32,49.32,0,0,0-38.68,0A49.36,49.36,0,0,0,331.6,340.4a49.37,49.37,0,0,0,0,38.56,50.87,50.87,0,0,0,10.55,15.67,50,50,0,0,0,15.69,10.63,47.73,47.73,0,0,0,19.34,3.95Z"/></clipPath></defs><g class="cls-3"><rect class="cls-4" width="787.74" height="453.74"/></g><g class="cls-5"><rect class="cls-6" x="212.68" y="27.01" width="119.26" height="119.2"/></g></svg>